<svg class="svg-icon" style="width: 1em; height: 1em;vertical-align: middle;fill: currentColor;overflow: hidden;" viewBox="0 0 1024 1024" version="1.1" xmlns="http://www.w3.org/2000/svg"><path d="M618.326 420.943l0-67.36c-0.252-18.521-6.88-112.288-112.482-112.288-105.598 0-112.227 93.766-112.478 112.58l0 67.068 224.96 0zM528.338 594.389l0 0c13.403-7.782 22.513-22.119 22.491-38.684 0-24.825-20.156-44.927-44.985-44.927-24.825 0-44.981 20.102-44.981 44.927 0 16.565 9.11 30.901 22.491 38.684l0 73.603 44.984 0 0-73.603zM512 960c-247.424 0-448-200.576-448-448s200.576-448 448-448c247.424 0 448 200.576 448 448s-200.576 448-448 448zM663.307 420.962l0-67.38c0 0-0.019-157.195-157.463-157.195-157.44 0-157.459 157.195-157.459 157.195l0 67.38-67.498 0 0 314.413 449.918 0 0-314.413-67.498 0z"  /></svg>